<?xml version="1.0" encoding="iso-8859-1"?>
<!-- Generator: Adobe Illustrator 19.0.0, SVG Export Plug-In . SVG Version: 6.00 Build 0)  -->
<svg version="1.1" id="Layer_1" xmlns="http://www.w3.org/2000/svg" xmlns:xlink="http://www.w3.org/1999/xlink" x="0px" y="0px"
	 viewBox="0 0 512 512" style="enable-background:new 0 0 512 512;" xml:space="preserve">
<g>
	<g>
		<path d="M295.588,277.113v-31.67h110.845V18.474H105.567v226.969h110.845v31.67H0v68.619h21.113v147.794h63.34V345.732h343.093
			v147.794h63.34V345.732H512v-68.619H295.588z M121.402,34.309h269.196v131.959H121.402V34.309z M121.402,229.608v-47.505h269.196
			v47.505H121.402z M279.753,245.443v31.67h-47.505v-31.67H279.753z M68.619,477.691h-31.67V345.732h31.67V477.691z
			 M475.052,477.691h-31.67V345.732h31.67V477.691z M496.165,329.897H15.835v-36.948h480.33V329.897z"/>
	</g>
</g>
<g>
	<g>
		<rect x="240.165" y="197.938" width="31.67" height="15.835"/>
	</g>
</g>
<g>
	<g>
		<polygon points="142.515,55.423 142.515,116.124 158.351,116.124 158.351,71.258 192.66,71.258 192.66,55.423 		"/>
	</g>
</g>
<g>
	<g>
		<rect x="142.515" y="126.68" width="15.835" height="21.113"/>
	</g>
</g>
<g>
</g>
<g>
</g>
<g>
</g>
<g>
</g>
<g>
</g>
<g>
</g>
<g>
</g>
<g>
</g>
<g>
</g>
<g>
</g>
<g>
</g>
<g>
</g>
<g>
</g>
<g>
</g>
<g>
</g>
</svg>
